<svg width="38" height="40" viewBox="0 0 38 40" fill="none" xmlns="http://www.w3.org/2000/svg">
<path d="M34.4215 37.8012C31.3921 39.5112 26.1951 40 19.006 40C11.8168 40 6.61977 39.5112 3.59044 37.8012C1.77222 36.7773 0.851852 35.3813 0.851852 34.3805C0.851852 33.8105 1.1551 33.4846 1.83037 33.4846H36.1809C36.8568 33.4846 37.1594 33.8105 37.1594 34.3805C37.1601 35.3813 36.2397 36.7773 34.4215 37.8012ZM36.1809 11.2739H1.83037C1.1551 11.2739 0.851852 10.9249 0.851852 10.2969C0.851852 6.57343 6.45658 0 19.006 0C31.439 0 37.1601 6.57343 37.1601 10.2969C37.1601 10.9249 36.8568 11.2739 36.1809 11.2739Z" fill="#FF8732"/>
<path d="M8.1691 26.6322C8.06406 26.4692 8.05281 26.3643 8.05281 26.3181C8.05281 26.1901 8.12284 26.0971 8.26227 25.9691C8.58865 25.6663 9.39272 24.9103 9.83539 24.2242C10.173 23.7004 10.3131 23.2234 10.3131 22.8282C10.3131 21.8162 9.39272 21.0245 8.39044 21.0245C7.74956 21.0245 7.1437 21.3854 6.73603 22.0484C6.18832 22.9324 5.53556 23.9563 5.11664 24.364C5.0116 24.4689 4.95345 24.492 4.87217 24.492C4.73211 24.492 4.67396 24.399 4.67396 24.2479V23.0842C4.67396 21.9442 3.99807 21.0245 2.77446 21.0245C1.53959 21.0245 0.87495 21.9435 0.87495 23.0842V30.2513C0.87495 31.3913 1.53896 32.3109 2.77446 32.3109C3.99807 32.3109 4.67396 31.3919 4.67396 30.2513V28.5994C4.67396 28.4595 4.73211 28.3553 4.87217 28.3553C5.05849 28.3553 5.10538 28.5413 5.15165 28.6343C5.41988 29.2743 6.2002 30.6353 6.92298 31.4381C7.41255 31.9732 8.01842 32.3109 8.6593 32.3109C9.74286 32.3109 10.652 31.3682 10.652 30.3562C10.652 29.7281 10.3837 29.2624 9.87103 28.7043C9.21827 27.9932 8.44922 27.0623 8.1691 26.6322Z" fill="#D62300"/>
<path d="M22.6999 20.3609C24.5294 20.3609 25.683 19.1971 25.683 17.499C25.683 16.417 25.0302 15.6722 23.7253 15.6722H23.3527C22.6649 15.6722 22.1291 15.9981 22.1291 16.7311C22.1291 17.3829 22.6999 17.6969 23.1313 17.6969C23.3527 17.6969 23.4927 17.7668 23.4927 17.9298C23.4927 18.1389 23.2482 18.2788 22.9681 18.2788C22.094 18.2788 21.5001 17.6619 21.5001 16.5101C21.5001 15.2302 22.316 14.7651 22.945 14.7651C23.7141 14.7651 23.8422 15.1609 24.3781 15.1609C24.9958 15.1609 25.4154 14.649 25.4154 14.1139C25.4154 13.7181 25.2403 13.416 24.9727 13.2062C24.4831 12.8453 23.796 12.5781 22.7706 12.5781C20.9642 12.5781 19.2048 13.765 19.2048 16.5107C19.2041 19.1391 20.9636 20.3609 22.6999 20.3609Z" fill="#D62300"/>
<path d="M2.21489 20.2909H3.85805C5.40804 20.2909 6.35154 19.2552 6.35154 17.9641C6.35154 16.9284 5.7338 16.4514 5.59436 16.3353C5.53622 16.2884 5.47807 16.2422 5.47807 16.1954C5.47807 16.1373 5.51308 16.1142 5.57123 16.0443C5.79257 15.7884 6.01391 15.3813 6.01391 14.7876C6.01391 13.3916 5.06978 12.6468 3.6017 12.6468H2.21489C1.29453 12.6468 0.851852 13.1825 0.851852 13.9035V19.0342C0.851852 19.7559 1.29453 20.2909 2.21489 20.2909ZM2.90267 14.6484C2.90267 14.4973 2.99583 14.3805 3.19403 14.3805H3.34534C3.84617 14.3805 3.9981 14.7295 3.9981 15.0323C3.9981 15.3114 3.84679 15.7072 3.34534 15.7072H3.19403C2.99583 15.7072 2.90267 15.5911 2.90267 15.4394V14.6484ZM2.90267 17.371C2.90267 17.2199 2.99583 17.1032 3.19403 17.1032H3.40349C3.96309 17.1032 4.12566 17.4753 4.12566 17.813C4.12566 18.1158 3.96247 18.546 3.40349 18.546H3.19403C2.99583 18.546 2.90267 18.4298 2.90267 18.2781V17.371Z" fill="#D62300"/>
<path d="M32.6389 20.349C33.3848 20.349 33.7925 19.7902 33.7925 19.0922V17.8592C33.7925 17.7081 33.8625 17.6382 33.9788 17.6382C34.1188 17.6382 34.1651 17.7194 34.1882 17.8592C34.2933 18.4523 34.5728 19.2552 34.8873 19.6629C35.2837 20.1867 35.6563 20.3496 36.029 20.3496C36.6348 20.3496 37.1594 19.8726 37.1594 19.2789C37.1594 18.8831 36.9962 18.5921 36.7868 18.3249C36.3904 17.8249 36.1459 17.499 35.9946 17.0919C35.9596 16.9989 35.9827 16.9171 36.0877 16.8359C36.4491 16.5569 36.8687 15.94 36.8687 14.963C36.8687 13.4852 35.6451 12.6474 34.1651 12.6474H32.8483C31.928 12.6474 31.4853 13.1824 31.4853 13.9042V19.0935C31.4853 19.7908 31.8929 20.349 32.6389 20.349ZM33.6643 14.8462C33.6643 14.6952 33.7574 14.5784 33.9556 14.5784H34.1188C34.6084 14.5784 34.7597 14.9274 34.7597 15.2302C34.7597 15.5211 34.6084 15.9051 34.1188 15.9051H33.9556C33.7574 15.9051 33.6643 15.789 33.6643 15.6373V14.8462Z" fill="#D62300"/>
<path d="M13.4825 21.0239C12.1776 21.0239 11.4667 22.0009 11.4667 23.2227V30.1108C11.4667 31.3326 12.1776 32.3096 13.4825 32.3096C14.7874 32.3096 15.4983 31.3326 15.4983 30.1108V23.2227C15.4983 22.0015 14.788 21.0239 13.4825 21.0239Z" fill="#D62300"/>
<path d="M34.2001 25.5034H33.6293C32.6039 25.5034 31.8117 25.9803 31.8117 27.0273C31.8117 27.9813 32.6739 28.4351 33.3148 28.4351C33.6293 28.4351 33.8506 28.5282 33.8506 28.7723C33.8506 29.0751 33.478 29.2724 33.0815 29.2724C31.7648 29.2724 30.8675 28.3765 30.8675 26.7127C30.8675 24.8628 32.0912 24.1879 33.0347 24.1879C34.1882 24.1879 34.3746 24.7698 35.1786 24.7698C36.1109 24.7698 36.7399 24.0137 36.7399 23.2458C36.7399 22.6758 36.4835 22.2338 36.0759 21.931C35.365 21.4072 34.2933 21.0233 32.7783 21.0233C30.0635 21.0233 27.418 22.7333 27.418 26.7127C27.418 30.5172 30.0628 32.2972 32.6733 32.2972C35.4112 32.2972 37.1475 30.6103 37.1475 28.1436C37.1482 26.5853 36.1696 25.5034 34.2001 25.5034Z" fill="#D62300"/>
<path d="M29.7958 20.291C30.4486 20.291 30.9613 19.907 30.9613 19.209C30.9613 18.5223 30.4486 18.1383 29.7958 18.1383H28.7473C28.5491 18.1383 28.4559 18.0222 28.4559 17.8705V17.6495C28.4559 17.4984 28.5491 17.3816 28.7473 17.3816H29.5514C30.111 17.3816 30.5536 17.0445 30.5536 16.4508C30.5536 15.8577 30.111 15.5199 29.5514 15.5199H28.7473C28.5491 15.5199 28.4559 15.4038 28.4559 15.2521V15.066C28.4559 14.915 28.5491 14.7982 28.7473 14.7982H29.7958C30.4486 14.7982 30.9613 14.4143 30.9613 13.7163C30.9613 13.0295 30.4486 12.6456 29.7958 12.6456H27.5937C26.6733 12.6456 26.2307 13.1806 26.2307 13.9023V19.033C26.2307 19.754 26.6733 20.2897 27.5937 20.2897H29.7958V20.291Z" fill="#D62300"/>
<path d="M9.77727 20.349C11.6649 20.349 12.6672 19.2203 12.6672 17.8012V13.8805C12.6672 13.1825 12.2595 12.6237 11.5136 12.6237C10.7677 12.6237 10.36 13.1825 10.36 13.8805V17.6732C10.36 17.9523 10.1968 18.2782 9.77727 18.2782C9.35773 18.2782 9.21767 17.9523 9.21767 17.6732V13.8805C9.21767 13.1825 8.79813 12.6237 8.05221 12.6237C7.30629 12.6237 6.89862 13.1825 6.89862 13.8805V17.8012C6.89925 19.2209 7.88964 20.349 9.77727 20.349Z" fill="#D62300"/>
<path d="M17.9574 20.349C18.5633 20.349 19.0878 19.872 19.0878 19.2783C19.0878 18.8825 18.9247 18.5915 18.7152 18.3243C18.3776 17.8823 18.0743 17.4984 17.923 17.0913C17.888 16.9983 17.9111 16.9165 18.0162 16.8353C18.3776 16.5563 18.7971 15.9394 18.7971 14.9624C18.7971 13.4846 17.5735 12.6468 16.0935 12.6468H14.7761C13.8558 12.6468 13.4131 13.1818 13.4131 13.9035V19.0929C13.4131 19.7908 13.8207 20.3496 14.5667 20.3496C15.3126 20.3496 15.7203 19.7908 15.7203 19.0929V17.8598C15.7203 17.7088 15.7903 17.6388 15.9066 17.6388C16.0466 17.6388 16.0929 17.72 16.116 17.8598C16.2211 18.4529 16.5006 19.2558 16.8151 19.6635C17.2115 20.186 17.5841 20.349 17.9574 20.349ZM16.046 15.9045H15.8828C15.6846 15.9045 15.5914 15.7884 15.5914 15.6366V14.8463C15.5914 14.6952 15.6846 14.5784 15.8828 14.5784H16.046C16.5356 14.5784 16.6869 14.9274 16.6869 15.2302C16.6869 15.5205 16.5356 15.9045 16.046 15.9045Z" fill="#D62300"/>
<path d="M24.6569 21.0239C23.4565 21.0239 22.8043 21.9198 22.8043 23.0485V25.5614C22.8043 25.7705 22.7343 25.8642 22.6061 25.8642C22.513 25.8642 22.4429 25.8061 22.3616 25.6432L20.7422 22.5016C20.1245 21.3029 19.4836 21.0239 18.7496 21.0239C17.526 21.0239 16.8501 21.9429 16.8501 23.0947V30.2856C16.8501 31.4144 17.5028 32.3103 18.7027 32.3103C19.9032 32.3103 20.5553 31.4144 20.5553 30.2856V27.7727C20.5553 27.5636 20.6253 27.4699 20.7535 27.4699C20.8467 27.4699 20.9167 27.528 20.998 27.6909L22.6174 30.8325C23.2351 32.0312 23.8991 32.3103 24.61 32.3103C25.8336 32.3103 26.5095 31.3913 26.5095 30.2394V23.0485C26.5095 21.9198 25.8574 21.0239 24.6569 21.0239Z" fill="#D62300"/>
<path d="M35.5075 39.0099C35.5075 38.6971 35.7501 38.4355 36.0827 38.4355C36.4154 38.4355 36.658 38.6971 36.658 39.0099C36.658 39.3457 36.4154 39.588 36.0827 39.588C35.7501 39.5886 35.5075 39.342 35.5075 39.0099ZM36.5329 39.0099C36.5329 38.7208 36.306 38.5529 36.0827 38.5529C35.8595 38.5529 35.6326 38.7208 35.6326 39.0099C35.6326 39.3108 35.8595 39.4706 36.0827 39.4706C36.306 39.4706 36.5329 39.3108 36.5329 39.0099ZM35.8833 39.2565V38.7682C35.8833 38.737 35.9108 38.7058 35.9421 38.7058H36.1065C36.2353 38.7058 36.3253 38.7838 36.3253 38.8894C36.3253 38.9793 36.2747 39.0573 36.1572 39.0767L36.286 39.2215C36.2978 39.2334 36.3053 39.249 36.3053 39.2602C36.3053 39.2952 36.2816 39.3189 36.2466 39.3189C36.2228 39.3189 36.2072 39.307 36.1959 39.2914L36.024 39.0885H36.0046V39.2565C36.0046 39.2877 35.9771 39.3151 35.9421 39.3151C35.9108 39.3145 35.8833 39.2877 35.8833 39.2565ZM36.0909 38.9786C36.1615 38.9786 36.2003 38.9437 36.2003 38.8969C36.2003 38.8463 36.1653 38.8188 36.1028 38.8188H36.0052V38.9793H36.0909V38.9786Z" fill="#D62300"/>
</svg>
